<?xml version="1.0" encoding="UTF-8" standalone="no"?>
<!-- Created with Inkscape (http://www.inkscape.org/) -->

<svg
   xmlns:dc="http://purl.org/dc/elements/1.1/"
   xmlns:cc="http://creativecommons.org/ns#"
   xmlns:rdf="http://www.w3.org/1999/02/22-rdf-syntax-ns#"
   xmlns:svg="http://www.w3.org/2000/svg"
   xmlns="http://www.w3.org/2000/svg"
   xmlns:sodipodi="http://sodipodi.sourceforge.net/DTD/sodipodi-0.dtd"
   xmlns:inkscape="http://www.inkscape.org/namespaces/inkscape"
   width="256"
   height="256"
   viewBox="0 0 67.733332 67.733335"
   version="1.1"
   id="svg8"
   inkscape:version="0.92.3 (2405546, 2018-03-11)"
   sodipodi:docname="bell.svg">
  <defs
     id="defs2" />
  <sodipodi:namedview
     id="base"
     pagecolor="#ffffff"
     bordercolor="#666666"
     borderopacity="1.0"
     inkscape:pageopacity="0.0"
     inkscape:pageshadow="2"
     inkscape:zoom="1.4"
     inkscape:cx="12.740462"
     inkscape:cy="135.95779"
     inkscape:document-units="mm"
     inkscape:current-layer="layer1"
     showgrid="false"
     units="px"
     inkscape:window-width="1920"
     inkscape:window-height="1001"
     inkscape:window-x="-9"
     inkscape:window-y="-9"
     inkscape:window-maximized="1" />
  <metadata
     id="metadata5">
    <rdf:RDF>
      <cc:Work
         rdf:about="">
        <dc:format>image/svg+xml</dc:format>
        <dc:type
           rdf:resource="http://purl.org/dc/dcmitype/StillImage" />
        <dc:title></dc:title>
      </cc:Work>
    </rdf:RDF>
  </metadata>
  <g
     inkscape:label="Layer 1"
     inkscape:groupmode="layer"
     id="layer1"
     transform="translate(0,-229.26665)">
    <path
       style="opacity:1;fill:#ffffff;fill-opacity:1;fill-rule:nonzero;stroke:none;stroke-width:11.33858299;stroke-miterlimit:4;stroke-dasharray:none;stroke-opacity:1"
       d="M 128.39258 3.8574219 A 19.464284 25.178572 0 0 0 108.92773 29.035156 A 19.464284 25.178572 0 0 0 109.45703 34.753906 C 84.084733 38.183293 68.392217 49.123375 61.072266 73.322266 C 46.557068 117.04683 44.75468 144.18313 52.857422 191.35742 L 129.28516 191.35742 L 205.71484 191.35742 C 213.81759 144.18314 212.0152 117.04683 197.5 73.322266 C 190.01355 48.572922 173.76402 37.69393 147.36328 34.533203 A 19.464284 25.178572 0 0 0 147.85742 29.035156 A 19.464284 25.178572 0 0 0 128.39258 3.8574219 z M 128.39258 6.59375 A 11.964284 22.441021 0 0 1 140.35742 29.035156 A 11.964284 22.441021 0 0 1 140.06836 33.867188 C 136.62529 33.643506 133.03703 33.521169 129.28516 33.5 C 124.88773 33.524828 120.7121 33.686535 116.73828 33.992188 A 11.964284 22.441021 0 0 1 116.42773 29.035156 A 11.964284 22.441021 0 0 1 128.39258 6.59375 z "
       transform="matrix(0.26458333,0,0,0.26458333,0,229.26665)"
       id="rect815" />
    <circle
       style="opacity:1;fill:#ffffff;fill-opacity:1;fill-rule:nonzero;stroke:none;stroke-width:3;stroke-miterlimit:4;stroke-dasharray:none;stroke-opacity:1"
       id="path831"
       cx="34.206955"
       cy="285.28271"
       r="5" />
  </g>
</svg>
