<?xml version="1.0" encoding="iso-8859-1"?>
<!-- Generator: Adobe Illustrator 19.0.0, SVG Export Plug-In . SVG Version: 6.00 Build 0)  -->
<svg version="1.1" id="Capa_1" xmlns="http://www.w3.org/2000/svg" xmlns:xlink="http://www.w3.org/1999/xlink" x="0px" y="0px"
	 viewBox="0 0 512 512" style="enable-background:new 0 0 512 512;" xml:space="preserve">
<circle style="fill:#590F38;" cx="256" cy="256" r="256"/>
<path style="fill:#3D0E2A;" d="M506.819,307.489L262,62.67l-5.392,222.882L148.335,177.279l-1.305,33.353l-33.192,1.148
	l122.837,122.837l-61.826,106.974l70.159,70.159c3.646,0.154,7.308,0.25,10.992,0.25C379.749,512,482.988,424.195,506.819,307.489z"
	/>
<g>
	<path style="fill:#FFFFFF;" d="M148.336,246.279c-1.955-21.045-13.455-32.545-34.499-34.499
		c21.044-1.956,32.543-13.456,34.497-34.501c1.955,21.045,13.455,32.545,34.499,34.499
		C161.79,213.734,150.291,225.234,148.336,246.279z"/>
	<path style="fill:#FFFFFF;" d="M256,316.932L256,316.932c-6.213,0-11.25-5.037-11.25-11.25V72.175c0-6.213,5.037-11.25,11.25-11.25
		l0,0c6.213,0,11.25,5.037,11.25,11.25v233.507C267.25,311.895,262.213,316.932,256,316.932z"/>
</g>
<path style="fill:#E0E0E0;" d="M256,60.925c-0.113,0-0.222,0.014-0.333,0.017v255.973c0.112,0.003,0.221,0.017,0.333,0.017
	c6.213,0,11.25-5.037,11.25-11.25V72.175C267.25,65.961,262.213,60.925,256,60.925z"/>
<path style="fill:#FFCF35;" d="M337.151,441.591H174.849l12.869-113.934c4.776-34.046,33.903-59.372,68.282-59.372l0,0
	c34.379,0,63.506,25.326,68.282,59.372L337.151,441.591z"/>
<path style="fill:#FFB344;" d="M324.282,327.656c-4.776-34.046-33.903-59.372-68.282-59.372l0,0c-0.112,0-0.222,0.007-0.333,0.008
	v173.299h81.484L324.282,327.656z"/>
<polygon style="fill:#FF6838;" points="185.152,350.377 326.848,350.377 324.65,330.918 187.35,330.918 "/>
<polygon style="fill:#AE4E32;" points="324.65,330.918 255.667,330.918 255.667,350.377 326.848,350.377 "/>
<path style="fill:#E0E0E0;" d="M371.792,302.859c-1.615-17.386-11.116-26.886-28.501-28.501
	c17.385-1.616,26.885-11.116,28.499-28.502c1.615,17.386,11.116,26.886,28.501,28.501
	C382.907,275.972,373.407,285.473,371.792,302.859z"/>
<g>
</g>
<g>
</g>
<g>
</g>
<g>
</g>
<g>
</g>
<g>
</g>
<g>
</g>
<g>
</g>
<g>
</g>
<g>
</g>
<g>
</g>
<g>
</g>
<g>
</g>
<g>
</g>
<g>
</g>
</svg>
