<?xml version="1.0" encoding="UTF-8" standalone="no"?>
<!-- Created with Inkscape (http://www.inkscape.org/) -->

<svg
   xmlns:dc="http://purl.org/dc/elements/1.1/"
   xmlns:cc="http://creativecommons.org/ns#"
   xmlns:rdf="http://www.w3.org/1999/02/22-rdf-syntax-ns#"
   xmlns:svg="http://www.w3.org/2000/svg"
   xmlns="http://www.w3.org/2000/svg"
   xmlns:sodipodi="http://sodipodi.sourceforge.net/DTD/sodipodi-0.dtd"
   xmlns:inkscape="http://www.inkscape.org/namespaces/inkscape"
   width="512"
   height="512"
   viewBox="0 0 135.46666 135.46667"
   version="1.1"
   id="svg870"
   inkscape:version="0.92.3 (2405546, 2018-03-11)"
   sodipodi:docname="instagram.svg">
  <defs
     id="defs864" />
  <sodipodi:namedview
     id="base"
     pagecolor="#ffffff"
     bordercolor="#666666"
     borderopacity="1.0"
     inkscape:pageopacity="0.0"
     inkscape:pageshadow="2"
     inkscape:zoom="0.49497475"
     inkscape:cx="-302.46659"
     inkscape:cy="153.79713"
     inkscape:document-units="mm"
     inkscape:current-layer="g1437"
     showgrid="false"
     units="px"
     inkscape:window-width="1920"
     inkscape:window-height="1001"
     inkscape:window-x="-9"
     inkscape:window-y="-9"
     inkscape:window-maximized="1"
     inkscape:snap-global="false"
     showguides="true"
     inkscape:guide-bbox="true" />
  <metadata
     id="metadata867">
    <rdf:RDF>
      <cc:Work
         rdf:about="">
        <dc:format>image/svg+xml</dc:format>
        <dc:type
           rdf:resource="http://purl.org/dc/dcmitype/StillImage" />
        <dc:title></dc:title>
      </cc:Work>
    </rdf:RDF>
  </metadata>
  <g
     inkscape:label="Layer 1"
     inkscape:groupmode="layer"
     id="layer1"
     transform="translate(0,-161.53332)">
    <g
       id="g1437"
       transform="matrix(1.304687,0,0,1.304687,495.65742,33.70228)"
       style="stroke-width:0.76646739">
      <circle
         style="opacity:1;fill:#ff5555;fill-opacity:1;fill-rule:nonzero;stroke:none;stroke-width:0.07664675;stroke-miterlimit:4;stroke-dasharray:none;stroke-opacity:1"
         id="path1452"
         cx="-327.95303"
         cy="150.0349"
         r="51.843693" />
      <path
         style="fill:#000000;stroke:none;stroke-width:1px;stroke-linecap:butt;stroke-linejoin:miter;stroke-opacity:1;opacity:0.35"
         d="M 376.78711 132.18359 L 128.39258 376.46484 L 307.53516 506.84961 A 255.64646 255.64646 0 0 0 511.82812 256.69531 A 255.64646 255.64646 0 0 0 510.00781 228.89844 L 376.78711 132.18359 z "
         transform="matrix(0.20279449,0,0,0.20279449,-379.90523,97.97832)"
         id="path1465" />
      <g
         id="g1459"
         transform="matrix(1.3527958,0,0,1.3527958,155.6064,-92.006269)"
         style="stroke-width:0.5665803">
        <g
           style="stroke-width:1.40358078"
           transform="matrix(0.40366773,0,0,0.40366773,-225.206,118.18959)"
           id="g1450">
          <path
             style="opacity:1;fill:#ffffff;fill-opacity:1;fill-rule:nonzero;stroke:none;stroke-width:0.14035808;stroke-miterlimit:4;stroke-dasharray:none;stroke-opacity:1"
             d="m -369.90537,102.69502 c -4.24623,0 -7.6646,3.41837 -7.6646,7.6646 v 1.91665 76.37153 0.61512 c 0,2.13476 0.86477,4.05981 2.26361,5.44693 1.83105,2.12986 4.61169,3.48434 7.73629,3.48434 h 80.00045 c 5.54,0 9.9999,-4.25767 9.9999,-9.54639 v -76.37153 c 0,-1.87837 -0.56502,-3.62509 -1.53878,-5.09878 -1.2045,-2.64854 -3.86782,-4.48247 -6.97701,-4.48247 z"
             id="path1441"
             inkscape:connector-curvature="0" />
          <path
             inkscape:connector-curvature="0"
             id="rect1415"
             d="m -367.65198,102.69502 c -5.54,0 -9.9999,4.25762 -9.9999,9.54634 v 76.37171 c 0,5.28872 4.4599,9.54634 9.9999,9.54634 h 80.00029 c 5.54001,0 9.9999,-4.25762 9.9999,-9.54634 v -76.37171 c 0,-5.28872 -4.45989,-9.54634 -9.9999,-9.54634 z m 2.43708,2.80653 h 75.12616 c 5.53998,0 9.9999,4.25762 9.9999,9.54634 V 185.551 c 0,5.28872 -4.45992,9.54634 -9.9999,9.54634 h -75.12616 c -5.54001,0 -9.99993,-4.25762 -9.99993,-9.54634 v -70.50311 c 0,-5.28872 4.45992,-9.54634 9.99993,-9.54634 z"
             style="opacity:1;fill:#000000;fill-opacity:1;fill-rule:nonzero;stroke:none;stroke-width:0.14035808;stroke-miterlimit:4;stroke-dasharray:none;stroke-opacity:1" />
          <path
             inkscape:connector-curvature="0"
             id="path1425"
             d="m -327.65208,123.87435 a 28.820684,28.820684 0 0 0 -28.82048,28.82098 28.820684,28.820684 0 0 0 28.82048,28.82046 28.820684,28.820684 0 0 0 28.82098,-28.82046 28.820684,28.820684 0 0 0 -28.82098,-28.82098 z m 0,5.19762 a 23.62351,23.62351 0 0 1 23.62334,23.62336 23.62351,23.62351 0 0 1 -23.62334,23.62336 23.62351,23.62351 0 0 1 -23.62338,-23.62336 23.62351,23.62351 0 0 1 23.62338,-23.62336 z"
             style="opacity:1;fill:#000000;fill-opacity:1;fill-rule:nonzero;stroke:none;stroke-width:0.14035808;stroke-miterlimit:4;stroke-dasharray:none;stroke-opacity:1" />
          <circle
             r="7.0870538"
             cy="121.14658"
             cx="-297.93973"
             id="path1432"
             style="opacity:1;fill:#000000;fill-opacity:1;fill-rule:nonzero;stroke:none;stroke-width:0.14035808;stroke-miterlimit:4;stroke-dasharray:none;stroke-opacity:1" />
        </g>
      </g>
    </g>
  </g>
</svg>
